# xmcd CD database file
#
# Track frame offsets:
#	150
#	14200
#	31308
#	49044
#	71470
#	81577
#
# Disc length: 1364 seconds
#
# Revision: 0
# Processed by: cddbd v1.5.2PL0 Copyright (c) Steve Scherf et al.
# Submitted via: CDex 1.51
#
DISCID=4e055206
DTITLE=Jenn Grant And - Goodbye Twentieth Century
DYEAR=2006
DGENRE=Blues
TTITLE0=Don´t Worry Baby
TTITLE1=Hawaii Song
TTITLE2=The Last Waltz
TTITLE3=Snoeshoe Song
TTITLE4=Take A Number
TTITLE5=Make Me Home Tonight
EXTD=YEAR: 2006
EXTT0=
EXTT1=
EXTT2=
EXTT3=
EXTT4=
EXTT5=
PLAYORDER=
